<?xml version="1.0" encoding="UTF-8"?>
<svg version="1.1" xmlns="http://www.w3.org/2000/svg"  width="308.7612359841165"
   height="304.915625">
<path d="M0 0 C0.70603363 0.00026688 1.41206726 0.00053375 2.13949585 0.00080872 C24.46027512 0.01138369 46.68657738 0.28886233 68.9375 2.1875 C69.69909424 2.25066406 70.46068848 2.31382813 71.24536133 2.37890625 C119.74104255 6.40910035 167.73117411 14.35797477 214.9375 26.1875 C216.16243164 26.49316895 217.38736328 26.79883789 218.64941406 27.11376953 C258.31958248 37.1522259 297.21193874 50.36881442 334.9375 66.1875 C336.11586426 66.68056641 337.29422852 67.17363281 338.50830078 67.68164062 C354.44780216 74.41034527 370.02555283 81.90657866 385.55322266 89.52685547 C388.65073763 91.04678743 391.75277441 92.5570874 394.85546875 94.06640625 C423.99457287 108.33505141 451.97371518 125.1680804 478.9375 143.1875 C479.8253418 143.78030762 480.71318359 144.37311523 481.62792969 144.98388672 C494.6559307 153.71131567 507.41464105 162.75017856 519.9375 172.1875 C521.07324463 173.04287354 521.07324463 173.04287354 522.23193359 173.91552734 C530.95036847 180.49776828 539.52949151 187.21119574 547.9375 194.1875 C549.68737688 195.60431874 551.43738049 197.02098098 553.1875 198.4375 C563.4658367 206.85371294 573.43031229 215.62701563 583.1796875 224.6484375 C585.71806916 226.98547444 588.29030834 229.27700095 590.875 231.5625 C595.51006266 235.71241118 599.87904283 240.09484381 604.24829102 244.51977539 C607.1769381 247.47280247 610.13595853 250.30978949 613.3125 253 C616.46902102 255.68695591 619.08440554 258.5938653 621.7578125 261.75390625 C624.6912054 265.02900263 627.8114499 268.09731592 630.9375 271.1875 C635.19743369 275.40752799 639.36446376 279.63171599 643.2421875 284.2109375 C645.3737317 286.69610194 647.59433599 289.09190146 649.8125 291.5 C653.9031056 295.98547552 657.78567843 300.59330544 661.59765625 305.31640625 C663.67469814 307.86503027 665.7869847 310.37455564 667.92285156 312.87353516 C674.14128339 320.15167866 680.08686051 327.61178618 685.9375 335.1875 C686.54255371 335.96657715 687.14760742 336.7456543 687.77099609 337.54833984 C696.60994155 348.94227577 705.11505111 360.48231376 713.12402344 372.47460938 C714.79358808 374.97221335 716.47149706 377.46404147 718.15185547 379.95439148 C740.75278528 413.46671104 760.84259608 448.05815682 778.9375 484.1875 C779.39156219 485.09208954 779.39156219 485.09208954 779.85479736 486.01495361 C804.6263396 535.41607593 823.61713838 587.85219197 837.9375 641.1875 C838.1171228 641.85378418 838.29674561 642.52006836 838.48181152 643.20654297 C857.87111049 715.2912036 867.19544193 790.09144909 867.125 864.6875 C867.12439575 865.88271271 867.1237915 867.07792542 867.12316895 868.30935669 C867.01020568 951.26227674 855.22593084 1033.90970996 749.47900391 1302.60107422 C748.04516878 1305.00684699 746.63260839 1307.42330821 745.23046875 1309.84765625 C739.44580383 1319.83914645 733.29442561 1329.55129997 726.9375 1339.1875 C726.52000488 1339.82397461 726.10250977 1340.46044922 725.67236328 1341.11621094 C711.42762698 1362.82516647 696.19815789 1383.9429249 679.9375 1404.1875 C679.42864258 1404.82252441 678.91978516 1405.45754883 678.39550781 1406.11181641 C668.64453633 1418.26051917 658.65989542 1430.19285433 648.16796875 1441.7109375 C646.2760613 1443.8115843 644.41182634 1445.93124002 642.5546875 1448.0625 C631.72286467 1460.45529079 620.12307689 1472.10573516 608.5 1483.75 C607.84256805 1484.41002014 607.18513611 1485.07004028 606.50778198 1485.75006104 C593.75650602 1498.5408626 593.75650602 1498.5408626 587.59985352 1503.77026367 C584.8566244 1506.10899844 582.25352151 1508.5966787 579.625 1511.0625 C574.75164451 1515.60098524 569.73446023 1519.88098797 564.5390625 1524.05078125 C561.98763271 1526.14632494 559.55423227 1528.32713155 557.125 1530.5625 C551.62421627 1535.56242744 545.80141009 1540.10616382 539.92382812 1544.64697266 C537.8320743 1546.26926452 535.75124211 1547.90483548 533.671875 1549.54296875 C493.11075054 1581.42834599 449.37912683 1608.8400405 403.9375 1633.1875 C402.9381543 1633.72745605 401.93880859 1634.26741211 400.90917969 1634.82373047 C382.05202286 1644.98191891 362.7225924 1653.81168529 343.05786133 1662.27478027 C341.05511841 1663.13687059 339.0538353 1664.00227096 337.05273438 1664.86816406 C318.32007421 1672.93569637 299.29749521 1679.9469985 279.98968506 1686.49151611 C278.0164353 1687.16072966 276.04452823 1687.83377828 274.07275391 1688.50732422 C201.00499813 1713.31469046 124.80963232 1726.34347823 47.9375 1731.1875 C46.20790039 1731.29771484 46.20790039 1731.29771484 44.44335938 1731.41015625 C-40.65535177 1736.52805698 -127.81077493 1727.34062362 -216.99841309 1704.71948242 C-218.93338779 1704.22077642 -220.86948779 1703.72644233 -222.80566406 1703.23242188 C-268.1952172 1691.55397614 -312.37186871 1675.4587172 -355.0625 1656.1875 C-355.68404968 1655.90712891 -356.30559937 1655.62675781 -356.94598389 1655.33789062 C-417.7768055 1627.847095 -475.47219953 1593.35931091 -528.0625 1552.1875 C-529.23694644 1551.27209343 -530.41142665 1550.35673018 -531.5859375 1549.44140625 C-546.33281185 1537.92516159 -560.75105319 1526.02029064 -574.5859375 1513.41796875 C-576.6865843 1511.5260613 -578.80624002 1509.66182634 -580.9375 1507.8046875 C-593.33029079 1496.97286467 -604.98073516 1485.37307689 -616.625 1473.75 C-617.28502014 1473.09256805 -617.94504028 1472.43513611 -618.62506104 1471.75778198 C-631.38514788 1459.03712582 -631.38514788 1459.03712582 -636.61401367 1452.88110352 C-639.11956475 1449.9515556 -641.79297916 1447.1785563 -644.4375 1444.375 C-649.08565533 1439.40776907 -653.50728536 1434.33173967 -657.76171875 1429.01953125 C-660.42159503 1425.74548999 -663.17498502 1422.56231474 -665.9375 1419.375 C-669.96501175 1414.70850495 -673.88505662 1409.97681241 -677.6875 1405.125 C-678.36703735 1404.25959595 -678.36703735 1404.25959595 -679.06030273 1403.37670898 C-681.27281326 1400.54114658 -683.44163435 1397.68287923 -685.55078125 1394.76953125 C-691.24602802 1386.97173818 -697.38367422 1381.08721036 -705.0625 1375.1875 C-713.11842927 1368.89964176 -720.6531695 1362.21616308 -728.0625 1355.1875 C-729.19558594 1354.11822266 -729.19558594 1354.11822266 -730.3515625 1353.02734375 C-735.73830322 1347.80156142 -740.41078588 1342.06782299 -745.0625 1336.1875 C-745.87976563 1335.17558594 -746.69703125 1334.16367188 -747.5390625 1333.12109375 C-753.83472518 1325.23533353 -759.11253948 1316.97150888 -764.0625 1308.1875 C-764.62517578 1307.20571777 -764.62517578 1307.20571777 -765.19921875 1306.20410156 C-774.8729132 1289.22561224 -781.38761648 1271.12780061 -786.0625 1252.1875 C-786.39701172 1250.96353516 -786.39701172 1250.96353516 -786.73828125 1249.71484375 C-787.11358976 1246.78924609 -786.77250042 1244.08863404 -786.48681641 1241.16601562 C-785.47040068 1227.07855054 -791.42991849 1215.7963977 -797.22740173 1203.39918518 C-800.85709097 1195.58512412 -804.01693019 1187.59563503 -807.125 1179.5625 C-807.41614685 1178.8114801 -807.7072937 1178.06046021 -808.00726318 1177.28668213 C-835.95007646 1104.92899412 -853.58483701 1028.90836738 -864.0625 916.1875 C-864.10486786 915.44312683 -864.14723572 914.69875366 -864.19088745 913.93182373 C-865.05465443 898.34938275 -865.263173 882.79178025 -865.25 867.1875 C-865.24972809 865.96716064 -865.24945618 864.74682129 -865.24917603 863.48950195 C-865.22015703 834.99795574 -863.9602712 806.75727527 -861.02807617 778.41796875 C-859.03257678 765.0814188 -859.03257678 765.0814188 -863.6875 753.0625 C-879.81020513 728.97699185 -881.18534799 696.89357003 -876.09375 669.07421875 C-867.31313351 625.824456 -843.3308968 586.41716551 -814.61035156 553.46826172 C-813.64936019 552.36571074 -812.69470865 551.25761233 -811.74536133 550.14501953 C-810.48282696 548.67642813 -809.19747433 547.2274026 -807.90112305 545.78857422 C-801.8964127 538.88633359 -798.3727403 532.02052003 -795 523.5625 C-793.8952072 520.89188566 -792.77298488 518.22875392 -791.6484375 515.56640625 C-791.21649834 514.53917702 -791.21649834 514.53917702 -790.77583313 513.49119568 C-774.45994524 474.96960827 -753.61162121 438.43543937 -731.65625 402.91015625 C-731.05224365 401.93224121 -730.4482373 400.95432617 -729.82592773 399.94677734 C-728.19258522 397.39104744 -726.45949619 394.94363024 -724.69140625 392.48046875 C-721.82125255 388.21367347 -721.00937515 384.49176939 -720.5 379.4375 C-718.78684967 366.84532434 -714.47947521 356.54453746 -707.0625 346.1875 C-706.61390625 345.55328125 -706.1653125 344.9190625 -705.703125 344.265625 C-698.04413384 334.44409515 -686.70427364 328.06809121 -675.0625 324.1875 C-673.29234071 322.09629684 -671.63704938 320.00353514 -670 317.8125 C-665.73311348 312.23343576 -661.25361624 306.99202381 -656.46875 301.84375 C-654.01743746 299.13775564 -651.72193309 296.34771796 -649.4375 293.5 C-646.14772856 289.42253681 -642.69386864 285.70491253 -638.9375 282.05859375 C-637.167732 280.29251276 -635.5512438 278.47075204 -633.9375 276.5625 C-629.94062898 271.90255361 -625.55342378 267.64951243 -621.19042969 263.3371582 C-618.06415133 260.23390412 -615.03497849 257.11579831 -612.1875 253.75 C-609.52397316 250.61295727 -606.63342359 248.02138077 -603.49609375 245.3671875 C-600.22099715 242.4337944 -597.1526865 239.31354782 -594.0625 236.1875 C-589.86397912 231.94932367 -585.66194828 227.80619609 -581.10546875 223.94921875 C-578.95717471 222.09667456 -576.87622354 220.17885049 -574.79760742 218.2487793 C-569.64056421 213.46271127 -564.37117645 208.8969772 -558.88671875 204.484375 C-556.40041185 202.46231628 -553.96000769 200.39615738 -551.53100586 198.3059082 C-544.0603524 191.89055465 -536.28947332 185.91902904 -528.43261719 179.98681641 C-525.93663224 178.09194526 -523.45551688 176.17880804 -520.9765625 174.26171875 C-509.60052573 165.48244351 -498.03469789 157.13272622 -486.0625 149.1875 C-485.10279297 148.54731934 -484.14308594 147.90713867 -483.15429688 147.24755859 C-435.6782152 115.63451691 -385.78953919 88.05420433 -333.0625 66.1875 C-332.42258118 65.92104675 -331.78266235 65.65459351 -331.12335205 65.38006592 C-297.64676425 51.46072555 -263.15009773 39.3435454 -228.0625 30.1875 C-227.34334412 29.99841064 -226.62418823 29.80932129 -225.88323975 29.61450195 C-168.90311531 14.63609676 -110.92853841 4.66336785 -52.0625 1.1875 C-51.37920624 1.14513214 -50.69591248 1.10276428 -49.99191284 1.05911255 C-33.33609111 0.04937571 -16.68075227 -0.01415161 0 0 Z " fill="#55CAC8" transform="translate(999.0625,81.8125)"/>
<path d="M0 0 C2.33157145 5.9388688 3.64891767 12.25537528 5.1875 18.4375 C5.64552002 20.27260132 5.64552002 20.27260132 6.11279297 22.14477539 C9.03424308 33.95548167 11.70442877 45.81854712 14.359375 57.69140625 C15.8294293 64.26103416 17.33059761 70.82245211 18.875 77.375 C19.07818848 78.24890381 19.28137695 79.12280762 19.49072266 80.02319336 C20.11615634 83.82074044 20.11615634 83.82074044 22 87 C24.12039438 86.56313867 26.22333835 86.04144212 28.31640625 85.48828125 C29.28947975 85.23403633 29.28947975 85.23403633 30.2822113 84.97465515 C32.37713263 84.42610928 34.46982984 83.86956596 36.5625 83.3125 C39.27167369 82.59850196 41.98158652 81.88732295 44.69140625 81.17578125 C45.3768602 80.99541321 46.06231415 80.81504517 46.76853943 80.62921143 C130.36588496 58.66880806 217.57368002 46.73856685 304 55 C305.11681152 55.10183594 306.23362305 55.20367187 307.38427734 55.30859375 C322.59985312 56.73402285 337.43385991 59.24204911 352.36914062 62.45068359 C354.57034577 62.91028935 356.76816699 63.32855501 358.984375 63.70703125 C371.64048001 65.92614469 383.81176675 70.00394823 396 74 C397.44632813 74.47397217 397.44632813 74.47397217 398.921875 74.95751953 C425.96938125 83.96857961 451.97580251 96.74757128 474 115 C474.58797363 115.48645996 475.17594727 115.97291992 475.78173828 116.47412109 C486.63032493 125.50457295 496.29100347 134.8389559 505 146 C505.6482373 146.82564453 505.6482373 146.82564453 506.30957031 147.66796875 C543.40314081 195.27182996 558.12437039 262.94884561 551.25 322.3125 C550.87152371 324.8809184 550.45458142 327.44395362 550 330 C549.87641113 330.72832031 549.75282227 331.45664062 549.62548828 332.20703125 C541.12176123 381.27095947 512.75601716 428.18469273 478.0625 463.0625 C477.30380615 463.82594727 476.5451123 464.58939453 475.76342773 465.37597656 C475.04872314 466.08850586 474.33401855 466.80103516 473.59765625 467.53515625 C472.95320557 468.178479 472.30875488 468.82180176 471.64477539 469.48461914 C470 471 470 471 468 472 C468.90234375 472.01417969 469.8046875 472.02835938 470.734375 472.04296875 C530.46013986 473.85354382 595.80711477 499.61025838 638 542 C638.92296875 542.89976562 639.8459375 543.79953125 640.796875 544.7265625 C647.35373854 551.13896773 653.35222493 557.75720497 659 565 C659.77730469 565.97195313 660.55460937 566.94390625 661.35546875 567.9453125 C672.71790505 582.36061325 682.54505406 597.71260306 691 614 C691.3501416 614.67289063 691.7002832 615.34578125 692.06103516 616.0390625 C705.68702979 642.62636911 713.18706719 671.77043043 718.46386719 701.02978516 C718.79934351 702.88834843 719.14475172 704.74517735 719.50488281 706.59912109 C726.67358619 744.2162613 724.09026585 787.64101086 712 824 C711.73380859 824.84546387 711.46761719 825.69092773 711.19335938 826.56201172 C697.95937384 868.57170056 673.80076828 907.4545252 642 938 C639.33044876 940.65169471 636.68223506 943.32243138 634.0546875 946.015625 C628.2001766 951.98948456 622.28737572 957.63968172 615.71875 962.83984375 C612.89954419 965.07981618 610.17312201 967.40893886 607.4375 969.75 C548.48803651 1018.88723022 474.9264094 1050.36153524 403 1075 C401.73020294 1075.43563263 401.73020294 1075.43563263 400.43475342 1075.88006592 C394.73334685 1077.83387807 389.02559262 1079.76814318 383.3125 1081.6875 C382.58649597 1081.93230103 381.86049194 1082.17710205 381.11248779 1082.42932129 C371.48849088 1085.66443115 361.83037937 1088.45959746 352 1091 C349.07900202 1091.79729543 346.16459484 1092.61715877 343.25 1093.4375 C335.60441442 1095.57256825 327.94054557 1097.62790307 320.2578125 1099.625 C316.49645666 1100.60309636 312.74335051 1101.60854051 308.9921875 1102.625 C271.36595267 1112.72945087 232.8577783 1119.9722911 194 1123 C192.16586548 1123.14465698 192.16586548 1123.14465698 190.29467773 1123.29223633 C177.97591709 1124.14204087 165.66198642 1124.18613664 153.31762695 1124.18530273 C149.70446998 1124.18748973 146.09161897 1124.20571573 142.47851562 1124.22460938 C129.5300731 1124.25586359 116.83548429 1123.81827426 103.98062134 1122.23831177 C101.34551122 1121.92125078 98.70507959 1121.67564649 96.0625 1121.4296875 C36.40411194 1115.17750691 -21.68070963 1092.33606639 -71.046875 1058.62890625 C-73.48122206 1056.97491146 -75.92112371 1055.46066254 -78.5078125 1054.05859375 C-82.760875 1051.68014104 -86.39922232 1048.62086858 -90.125 1045.5 C-91.23379517 1044.57840088 -91.23379517 1044.57840088 -92.36499023 1043.63818359 C-99.12240417 1037.97894962 -105.6275817 1032.08721916 -112 1026 C-113.11955078 1024.94232422 -113.11955078 1024.94232422 -114.26171875 1023.86328125 C-119.66156144 1018.63317821 -124.34067834 1012.88993983 -129 1007 C-129.81726563 1005.98808594 -130.63453125 1004.97617188 -131.4765625 1003.93359375 C-137.77222518 996.04783353 -143.05003948 987.78400888 -148 979 C-148.56267578 978.01821777 -148.56267578 978.01821777 -149.13671875 977.01660156 C-158.8104132 960.03811224 -165.32511648 941.94030061 -170 923 C-170.22300781 922.18402344 -170.44601563 921.36804687 -170.67578125 920.52734375 C-171.05108976 917.60174609 -170.71000042 914.90113404 -170.42431641 911.97851562 C-169.40790068 897.89105054 -175.36741849 886.6088977 -181.16490173 874.21168518 C-184.79459097 866.39762412 -187.95443019 858.40813503 -191.0625 850.375 C-191.35364685 849.6239801 -191.6447937 848.87296021 -191.94476318 848.09918213 C-219.88757646 775.74149412 -237.52233701 699.72086738 -248 587 C-248.04236786 586.25562683 -248.08473572 585.51125366 -248.12838745 584.74432373 C-248.99215443 569.16188275 -249.200673 553.60428025 -249.1875 538 C-249.18722809 536.77966064 -249.18695618 535.55932129 -249.18667603 534.30200195 C-249.15765703 505.81045574 -247.8977712 477.56977527 -244.96557617 449.23046875 C-242.97007678 435.8939188 -242.97007678 435.8939188 -247.625 423.875 C-263.74770513 399.78949185 -265.12284799 367.70607003 -260.03125 339.88671875 C-251.25063351 296.636956 -227.2683968 257.22966551 -198.54785156 224.28076172 C-197.58686019 223.17821074 -196.63220865 222.07011233 -195.68286133 220.95751953 C-194.42032696 219.48892813 -193.13497433 218.0399026 -191.83862305 216.60107422 C-185.8339127 209.69883359 -182.3102403 202.83302003 -178.9375 194.375 C-177.8327072 191.70438566 -176.71048488 189.04125392 -175.5859375 186.37890625 C-175.29797806 185.69408676 -175.01001862 185.00926727 -174.71333313 184.30369568 C-158.39744524 145.78210827 -137.54912121 109.24793937 -115.59375 73.72265625 C-114.98974365 72.74474121 -114.3857373 71.76682617 -113.76342773 70.75927734 C-112.13008522 68.20354744 -110.39699619 65.75613024 -108.62890625 63.29296875 C-105.75875255 59.02617347 -104.94687515 55.30426939 -104.4375 50.25 C-102.72434967 37.65782434 -98.41697521 27.35703746 -91 17 C-90.55140625 16.36578125 -90.1028125 15.7315625 -89.640625 15.078125 C-70.69134966 -9.22153397 -26.0874436 -16.81669918 0 0 Z " fill="#000000" transform="translate(383,411)"/>
<path d="M0 0 C1.18374207 -0.00012085 2.36748413 -0.0002417 3.58709717 -0.00036621 C23.98655162 0.02907468 43.91132399 1.20704511 64.0625 4.375 C65.12984375 4.5404834 66.1971875 4.7059668 67.296875 4.87646484 C93.12191381 9.02148498 119.09667421 16.76801613 142.0625 29.375 C143.27334494 30.0184034 144.48428195 30.66163354 145.6953125 31.3046875 C180.79669851 50.29239139 205.28575015 83.2992635 216.828125 121.15625 C217.24121352 122.56202199 217.65275406 123.9682501 218.0625 125.375 C218.61164063 127.18484375 218.61164063 127.18484375 219.171875 129.03125 C231.951394 175.03751839 228.56197512 226.52244985 204.86279297 268.5 C199.33256989 277.78024527 192.58941188 285.67380362 185.0625 293.375 C184.28519531 294.21417969 183.50789063 295.05335938 182.70703125 295.91796875 C171.61445098 307.60512618 158.09659887 316.60371575 144.0625 324.375 C143.24990723 324.82842773 142.43731445 325.28185547 141.60009766 325.74902344 C108.03670262 344.31336941 70.93563043 356.83585176 33.67578125 365.66796875 C18.76554846 369.09640555 18.76554846 369.09640555 7.29296875 378.73046875 C3.4952596 385.47846435 3.06705852 391.00951642 4.76171875 398.44140625 C8.4850518 411.74800159 14.49983356 423.26712385 26.75 430.375 C37.48163425 435.04600162 49.07819968 431.82777791 59.96798706 429.24130249 C76.93481861 425.23353038 93.94118431 422.14258316 111.22314453 419.87890625 C113.67872098 419.5566177 116.13300941 419.22425328 118.58544922 418.87890625 C136.00680936 416.46460752 153.3107391 416.06850685 170.875 416 C172.46933868 415.98808121 172.46933868 415.98808121 174.09588623 415.97592163 C189.95737442 415.88476365 205.36368119 417.14706483 221.0625 419.375 C222.00843018 419.50600098 222.95436035 419.63700195 223.92895508 419.77197266 C247.32196672 423.04262792 271.50347574 430.6605306 292.0625 442.375 C293.49335937 443.10396484 293.49335937 443.10396484 294.953125 443.84765625 C341.60770522 467.77479096 369.47050591 515.1121728 385.0625 563.375 C386.98096735 569.65005896 388.58668892 575.98303995 390.0625 582.375 C390.33054443 583.50566895 390.33054443 583.50566895 390.60400391 584.65917969 C391.90647178 590.20555147 393.03151159 595.77218772 394.0625 601.375 C394.21493164 602.17131836 394.36736328 602.96763672 394.52441406 603.78808594 C397.0660018 617.58292393 397.35184319 631.32923036 397.375 645.3125 C397.38037781 646.62241913 397.38037781 646.62241913 397.38586426 647.95880127 C397.41084889 659.273917 396.7205853 670.17925588 395.0625 681.375 C394.8882535 682.70756861 394.71614462 684.04041842 394.54614258 685.37353516 C390.75150971 713.82657741 377.90298965 742.35475958 361.0625 765.375 C360.45390137 766.21466309 360.45390137 766.21466309 359.83300781 767.07128906 C346.76965236 784.96218111 330.69335531 801.96125468 313.0625 815.375 C312.47533203 815.82794434 311.88816406 816.28088867 311.28320312 816.74755859 C251.94934923 862.48281603 179.91960694 890.10942407 108.0625 909.375 C107.35867188 909.56545898 106.65484375 909.75591797 105.9296875 909.95214844 C101.36611945 911.18355402 96.79283967 912.37439648 92.21582031 913.5546875 C89.03202264 914.38292846 85.85204713 915.22470623 82.6723938 916.06867981 C79.51604061 916.90465311 76.35769719 917.73294675 73.19903564 918.56015015 C71.61944722 918.97537737 70.0406137 919.39348805 68.46258545 919.81460571 C66.22189084 920.41184935 63.97855351 920.99803512 61.734375 921.58203125 C61.06522064 921.76302368 60.39606628 921.94401611 59.70663452 922.13049316 C55.40656955 923.23470939 51.49271591 923.53936058 47.0625 923.375 C44.1479518 912.78719439 41.52372402 902.16841041 39.1875 891.4375 C37.14018154 882.03856785 34.93360427 872.69748483 32.5625 863.375 C29.95774409 853.12739804 27.58103629 842.85052231 25.33203125 832.51953125 C23.55658637 824.43139345 21.60222051 816.4002759 19.5625 808.375 C16.95793563 798.12734719 14.58103769 787.85052873 12.33203125 777.51953125 C10.55658637 769.43139345 8.60222051 761.4002759 6.5625 753.375 C3.95793563 743.12734719 1.58103769 732.85052873 -0.66796875 722.51953125 C-2.44341363 714.43139345 -4.39777949 706.4002759 -6.4375 698.375 C-9.04206437 688.12734719 -11.41896231 677.85052873 -13.66796875 667.51953125 C-15.44341363 659.43139345 -17.39777949 651.4002759 -19.4375 643.375 C-22.04206437 633.12734719 -24.41896231 622.85052873 -26.66796875 612.51953125 C-28.44341363 604.43139345 -30.39777949 596.4002759 -32.4375 588.375 C-35.04206437 578.12734719 -37.41896231 567.85052873 -39.66796875 557.51953125 C-41.44341363 549.43139345 -43.39777949 541.4002759 -45.4375 533.375 C-48.04206437 523.12734719 -50.41896231 512.85052873 -52.66796875 502.51953125 C-54.44341363 494.43139345 -56.39777949 486.4002759 -58.4375 478.375 C-61.04206437 468.12734719 -63.41896231 457.85052873 -65.66796875 447.51953125 C-67.44341363 439.43139345 -69.39777949 431.4002759 -71.4375 423.375 C-74.04206437 413.12734719 -76.41896231 402.85052873 -78.66796875 392.51953125 C-80.44341363 384.43139345 -82.39777949 376.4002759 -84.4375 368.375 C-87.04206437 358.12734719 -89.41896231 347.85052873 -91.66796875 337.51953125 C-93.44341363 329.43139345 -95.39777949 321.4002759 -97.4375 313.375 C-100.04206437 303.12734719 -102.41896231 292.85052873 -104.66796875 282.51953125 C-106.44341363 274.43139345 -108.39777949 266.4002759 -110.4375 258.375 C-113.04206437 248.12734719 -115.41896231 237.85052873 -117.66796875 227.51953125 C-119.44341363 219.43139345 -121.39777949 211.4002759 -123.4375 203.375 C-126.04206437 193.12734719 -128.41896231 182.85052873 -130.66796875 172.51953125 C-132.44341363 164.43139345 -134.39777949 156.4002759 -136.4375 148.375 C-139.04206437 138.12734719 -141.41896231 127.85052873 -143.66796875 117.51953125 C-145.70176262 108.25447027 -147.99102339 99.06569129 -150.32763672 89.87304688 C-152.66386611 80.62111356 -154.77102923 71.33052276 -156.79321289 62.00537109 C-158.51047021 54.13154497 -160.40232278 46.31817777 -162.55322266 38.55078125 C-164.57928493 30.90227232 -164.57928493 30.90227232 -162.9375 27.375 C-160.41015625 25.75 -160.41015625 25.75 -157 24.375 C-156.38535889 24.12645264 -155.77071777 23.87790527 -155.13745117 23.62182617 C-148.01981975 20.84673674 -140.65239263 18.88937464 -133.26342773 16.9855957 C-130.69558445 16.31149304 -128.14213506 15.59193513 -125.5859375 14.875 C-109.5554692 10.50255014 -92.95536106 8.11117845 -76.5496521 5.58145142 C-74.89486421 5.32576711 -73.24055202 5.06697755 -71.58682251 4.80453491 C-47.85091274 1.05891455 -24.00537334 -0.0382285 0 0 Z " fill="#55CAC8" transform="translate(588.9375,534.625)"/>
<path d="M0 0 C3.52538144 13.79490248 6.97213537 27.58665812 10 41.5 C11.98765552 50.62728758 14.13599552 59.69677907 16.4375 68.75 C18.97121428 78.71701515 21.32893139 88.71243924 23.5625 98.75 C25.80546121 108.8291589 28.17828285 118.85920964 30.73071289 128.86425781 C32.96858476 137.70914472 34.96350091 146.60502315 36.94775391 155.50927734 C38.85040113 164.03687984 40.84007553 172.5335581 43 181 C45.4992992 190.79671824 47.74886007 200.64183116 49.94775391 210.50927734 C51.85040113 219.03687984 53.84007553 227.5335581 56 236 C58.4992992 245.79671824 60.74886007 255.64183116 62.94775391 265.50927734 C64.85040113 274.03687984 66.84007553 282.5335581 69 291 C71.4992992 300.79671824 73.74886007 310.64183116 75.94775391 320.50927734 C77.85040113 329.03687984 79.84007553 337.5335581 82 346 C84.4992992 355.79671824 86.74886007 365.64183116 88.94775391 375.50927734 C90.85040113 384.03687984 92.84007553 392.5335581 95 401 C97.4992992 410.79671824 99.74886007 420.64183116 101.94775391 430.50927734 C103.85040113 439.03687984 105.84007553 447.5335581 108 456 C110.4992992 465.79671824 112.74886007 475.64183116 114.94775391 485.50927734 C116.85040113 494.03687984 118.84007553 502.5335581 121 511 C123.4992992 520.79671824 125.74886007 530.64183116 127.94775391 540.50927734 C129.85040113 549.03687984 131.84007553 557.5335581 134 566 C136.4992992 575.79671824 138.74886007 585.64183116 140.94775391 595.50927734 C142.85040113 604.03687984 144.84007553 612.5335581 147 621 C149.4992992 630.79671824 151.74886007 640.64183116 153.94775391 650.50927734 C155.85040113 659.03687984 157.84007553 667.5335581 160 676 C162.4992992 685.79671824 164.74886007 695.64183116 166.94775391 705.50927734 C168.85040113 714.03687984 170.84007553 722.5335581 173 731 C175.4992992 740.79671824 177.74886007 750.64183116 179.94775391 760.50927734 C181.85040636 769.03690325 183.84086909 777.53334438 186 786 C188.22780135 794.76379405 190.33007492 803.5514594 192.34008789 812.36743164 C192.65055006 813.72784958 192.96267492 815.08788935 193.27661133 816.44750977 C194.93114556 823.62609672 196.38451452 830.65414084 197 838 C189.37283109 838.16760962 181.99985809 837.73334836 174.4375 836.75 C173.39102295 836.61577637 172.3445459 836.48155273 171.26635742 836.34326172 C162.8006723 835.20639865 154.54959732 833.58113564 146.26025391 831.54150391 C143.89257369 830.97426317 141.51759015 830.45809653 139.13671875 829.94921875 C117.505966 825.23061326 96.92578361 817.5820607 77 808 C76.30261719 807.67177246 75.60523438 807.34354492 74.88671875 807.00537109 C51.96767422 796.20866059 29.13155179 781.80093527 11.4765625 763.4765625 C9.90233668 761.840442 9.90233668 761.840442 7.5 760.0625 C3.8824303 757.07800499 1.02057461 753.57513324 -2 750 C-3.11375 748.73542969 -3.11375 748.73542969 -4.25 747.4453125 C-23.06985837 725.66977125 -48 687.94139063 -48 658 C-58.86608189 654.49980027 -70.0249546 654.43639397 -80.3828125 659.4609375 C-89.83316502 665.01830898 -95.13371237 672.84647827 -99 683 C-102.11030157 679.34945049 -103.77460625 675.2832724 -105.625 670.9140625 C-105.96823807 670.11372589 -106.31147614 669.31338928 -106.66511536 668.48880005 C-107.78412034 665.87060149 -108.89317202 663.2483679 -110 660.625 C-110.38127045 659.72430786 -110.76254089 658.82361572 -111.15536499 657.89562988 C-117.69855054 642.41079427 -123.83004373 626.84833687 -129.32348633 610.95593262 C-130.03340754 608.90341232 -130.74809934 606.85258674 -131.46289062 604.80175781 C-157.75755073 529.13084996 -173.50425778 450.00170594 -178 370 C-178.04236786 369.25562683 -178.08473572 368.51125366 -178.12838745 367.74432373 C-178.99214967 352.16196861 -179.20186167 336.60422233 -179.1875 321 C-179.18689575 319.77700195 -179.1862915 318.55400391 -179.18566895 317.29394531 C-179.13942441 282.5992665 -176.76848888 248.47591357 -173 214 C-169.80386539 215.51881575 -167.70726036 217.13008935 -165.1875 219.625 C-150.3840087 232.9919683 -132.99015635 236.16168923 -113.57617188 235.21142578 C-107.72502751 234.73122383 -102.44604679 233.2002849 -97 231 C-95.92105469 230.56429687 -94.84210938 230.12859375 -93.73046875 229.6796875 C-86.13324917 226.25110258 -81.15839433 222.0653494 -76.7578125 215.0078125 C-75.80899584 212.49393744 -76.2000912 211.53488944 -77 209 C-77.61955843 207.64922645 -78.27933698 206.31649213 -78.96875 205 C-92.53775379 178.3049621 -103.16741372 147.66105887 -94.31640625 117.77734375 C-93.88644644 116.51518237 -93.44738759 115.25608963 -93 114 C-92.76394043 113.32984863 -92.52788086 112.65969727 -92.28466797 111.96923828 C-84.24554081 89.78000335 -71.09878732 70.0002334 -56 52 C-55.58878906 51.50000488 -55.17757812 51.00000977 -54.75390625 50.48486328 C-48.74173053 43.18094111 -42.43636204 36.25666592 -35.75 29.5625 C-35.10095703 28.91265137 -34.45191406 28.26280273 -33.78320312 27.59326172 C-29.34527896 23.2060245 -24.74114781 19.05620863 -20 15 C-19.41653809 14.50008545 -18.83307617 14.0001709 -18.23193359 13.48510742 C-16.59610829 12.08945339 -14.95536712 10.69985437 -13.3125 9.3125 C-12.77044922 8.85294922 -12.22839844 8.39339844 -11.66992188 7.91992188 C-10.11802907 6.60764581 -8.55916387 5.30362869 -7 4 C-5.62908203 2.84564453 -5.62908203 2.84564453 -4.23046875 1.66796875 C-2 0 -2 0 0 0 Z " fill="#55CAC8" transform="translate(313,628)"/>
<path d="M0 0 C1.06074234 -0.00979385 2.12148468 -0.01958771 3.21437073 -0.02967834 C51.2392015 -0.38204272 101.00421217 4.30421262 139.5703125 36.23828125 C140.44171875 36.94597656 141.313125 37.65367187 142.2109375 38.3828125 C156.35680788 50.42415922 167.32674026 68.20660184 168.8828125 87.015625 C169.48355484 100.86941079 165.77859131 112.00399237 157.5703125 123.23828125 C157.12042969 123.8725 156.67054688 124.50671875 156.20703125 125.16015625 C146.11658817 138.13783526 131.36872805 144.01112125 115.5703125 146.23828125 C103.15950769 147.34956803 93.32707594 145.89450544 82.5703125 139.23828125 C82.73144531 138.24183594 82.89257812 137.24539063 83.05859375 136.21875 C84.5652717 125.60267052 83.93569899 114.66680912 81.5703125 104.23828125 C81.37566406 103.36558594 81.18101562 102.49289062 80.98046875 101.59375 C77.80717807 89.37000899 69.89969052 80.63322755 59.2578125 74.23828125 C47.58925895 67.67849033 34.69694414 62.83403569 21.5703125 60.23828125 C20.9220752 60.10969727 20.27383789 59.98111328 19.60595703 59.84863281 C10.64027302 58.09792493 1.71294748 56.5953309 -7.4296875 56.23828125 C-8.10209473 56.2110498 -8.77450195 56.18381836 -9.46728516 56.15576172 C-45.04892347 54.91807183 -82.27546998 62.70497744 -113.4296875 80.23828125 C-114.47640625 80.8003125 -115.523125 81.36234375 -116.6015625 81.94140625 C-136.61360196 93.03616388 -152.47359276 107.94385208 -159.4296875 130.23828125 C-163.56039227 147.31186095 -158.95984571 165.50922026 -150.609375 180.5078125 C-129.5063326 213.78568705 -86.61916768 224.31437042 -50.58984375 232.55126953 C-44.02203719 233.97909769 -37.43275996 235.06072718 -30.77001953 235.93212891 C-28.32993359 236.25133063 -25.89372646 236.59342418 -23.45703125 236.9375 C-9.17093756 238.91322234 5.16739678 240.41116721 19.50585938 241.94471741 C43.2704885 244.4864893 66.96711221 247.12877276 90.59082031 250.79003906 C93.42206486 251.21597851 96.25517778 251.60683772 99.09375 251.98046875 C142.0643865 257.64631504 187.0168423 271.77438237 220.5703125 300.23828125 C221.446875 300.975625 222.3234375 301.71296875 223.2265625 302.47265625 C251.65070695 327.21218939 264.92180157 360.43756974 269.5703125 397.23828125 C271.22741283 430.06715312 266.6929639 459.634321 247.5703125 487.23828125 C247.18746094 487.79322266 246.80460937 488.34816406 246.41015625 488.91992188 C234.8697346 505.27837435 219.74001245 519.53081472 203.5703125 531.23828125 C202.3982367 532.10519734 201.22636481 532.97238916 200.0546875 533.83984375 C192.47808054 539.39636981 184.67158587 544.47171808 176.5703125 549.23828125 C175.44109375 549.91117188 174.311875 550.5840625 173.1484375 551.27734375 C151.38048543 564.02450144 128.30225088 573.81350621 104.5703125 582.23828125 C103.37599609 582.66737793 102.18167969 583.09647461 100.95117188 583.53857422 C80.47497088 590.84241631 59.72742014 596.32609474 38.5703125 601.23828125 C37.05123291 601.59792969 37.05123291 601.59792969 35.50146484 601.96484375 C29.88637716 603.27846041 24.27029954 604.36422482 18.5703125 605.23828125 C17.63123047 605.38491211 16.69214844 605.53154297 15.72460938 605.68261719 C-17.25190352 610.55057861 -53.79484725 611.45088463 -86.4296875 604.23828125 C-87.33267578 604.04572754 -88.23566406 603.85317383 -89.16601562 603.65478516 C-94.98405575 602.38856806 -100.71420558 600.90498953 -106.4296875 599.23828125 C-107.15317383 599.03009766 -107.87666016 598.82191406 -108.62207031 598.60742188 C-147.88075021 587.06597369 -181.94641178 565.18982821 -211.4296875 537.23828125 C-212.18378906 536.52671875 -212.93789062 535.81515625 -213.71484375 535.08203125 C-249.85971477 500.01503909 -275.01427228 443.70641714 -275.8046875 393.30078125 C-275.76081561 375.49216972 -270.36084785 358.33189611 -257.75390625 345.296875 C-247.07421832 335.83772283 -233.52445293 335.09192803 -219.8671875 334.92578125 C-219.06861328 334.89677734 -218.27003906 334.86777344 -217.44726562 334.83789062 C-210.48503396 334.76412615 -205.59081134 336.64661304 -200.21655273 341.05273438 C-197.99418277 343.77095489 -198.002926 344.97438627 -198.1796875 348.4375 C-198.21400879 349.4682666 -198.24833008 350.4990332 -198.28369141 351.56103516 C-198.33187012 352.67140137 -198.38004883 353.78176758 -198.4296875 354.92578125 C-199.01212731 386.98664758 -189.26766434 418.50530465 -175.4296875 447.23828125 C-175.10822754 447.91020508 -174.78676758 448.58212891 -174.45556641 449.27441406 C-167.1117792 464.37229836 -157.52177389 478.65450049 -146.4296875 491.23828125 C-145.57890625 492.21023438 -144.728125 493.1821875 -143.8515625 494.18359375 C-123.75899862 516.8058753 -98.93601816 533.97384978 -70.4296875 544.23828125 C-69.77774414 544.47385742 -69.12580078 544.70943359 -68.45410156 544.95214844 C-32.383355 557.58862687 6.01495118 554.72930077 42.5703125 546.23828125 C43.62677979 545.99489014 43.62677979 545.99489014 44.70458984 545.74658203 C81.525573 537.08000472 124.43737186 521.10694258 145.5637207 487.58886719 C149.03817251 481.78192184 151.44593291 475.65407824 153.5703125 469.23828125 C153.92222656 468.26890625 154.27414062 467.29953125 154.63671875 466.30078125 C161.15972953 444.90312245 156.82405884 417.89702059 147.078125 398.2265625 C133.87613397 374.06502389 111.37715461 360.39883575 86.5703125 350.23828125 C85.77536377 349.90465576 84.98041504 349.57103027 84.16137695 349.22729492 C56.42679182 337.78424062 25.92455279 334.49429582 -3.66027832 331.36132812 C-7.54186221 330.94844122 -11.42228555 330.52496396 -15.30273438 330.1015625 C-16.06341091 330.01859043 -16.82408745 329.93561836 -17.60781479 329.85013199 C-19.13002642 329.68406328 -20.65223182 329.51793743 -22.17443085 329.35175323 C-24.41642874 329.10734001 -26.6585542 328.86412367 -28.9006958 328.62103271 C-45.65853677 326.79921175 -62.39261115 324.8030183 -79.0546875 322.23828125 C-86.35371775 321.12872363 -93.65025587 320.0662836 -100.97558594 319.14575195 C-150.62301591 312.81207386 -202.91294833 293.25670409 -235.05859375 253.05859375 C-245.27155224 238.99065451 -253.04907622 222.73142647 -258.4296875 206.23828125 C-258.73261719 205.3153125 -259.03554687 204.39234375 -259.34765625 203.44140625 C-265.80474056 181.80853495 -266.98175788 158.93190318 -260.4296875 137.23828125 C-260.12417969 136.22241943 -260.12417969 136.22241943 -259.8125 135.18603516 C-247.26210859 95.0848231 -212.72161989 65.19708001 -176.640625 46.22265625 C-172.60824836 44.14739295 -168.52731156 42.18086542 -164.4296875 40.23828125 C-163.68654297 39.88266113 -162.94339844 39.52704102 -162.17773438 39.16064453 C-140.04916025 28.63981741 -117.17861279 21.14785605 -93.4296875 15.23828125 C-92.35090332 14.96886719 -91.27211914 14.69945312 -90.16064453 14.421875 C-82.93193771 12.62796844 -75.68792249 10.90841786 -68.4296875 9.23828125 C-67.60484863 9.04637207 -66.78000977 8.85446289 -65.93017578 8.65673828 C-44.36432929 3.68485003 -22.15610655 0.16982831 0 0 Z " fill="#000000" transform="translate(1483.4296875,648.76171875)"/>
<path d="M0 0 C0.33 0 0.66 0 1 0 C1.02578125 1.01835937 1.0515625 2.03671875 1.078125 3.0859375 C1.43070682 12.99859145 2.90306534 22.26814141 5.25341797 31.88916016 C6.75426081 38.14283558 8.1585422 44.41919577 9.58468628 50.69024658 C10.28522014 53.76594832 10.99007536 56.8406516 11.69502258 59.91534424 C13.15228162 66.27204622 14.59750792 72.63095092 16 79 C15.50298584 79.31114746 15.00597168 79.62229492 14.49389648 79.94287109 C-15.05336432 98.46300581 -43.00790117 118.08152126 -68.56933594 141.89526367 C-72.29845401 145.36874732 -76.09288507 148.72892703 -80 152 C-77.80258439 145.04271018 -75.14392466 138.41745374 -72.1875 131.75 C-71.70958008 130.67008789 -71.23166016 129.59017578 -70.73925781 128.47753906 C-56.59885794 96.79978226 -40.95025215 65.69239451 -23 36 C-22.32195312 34.87803223 -21.64390625 33.75606445 -20.9453125 32.60009766 C-18.8273087 29.10250774 -16.69727541 25.61237312 -14.5625 22.125 C-13.91224854 21.06128174 -13.26199707 19.99756348 -12.59204102 18.90161133 C-4.59657182 5.93939981 -4.59657182 5.93939981 0 0 Z " fill="#55C9C7" transform="translate(278,469)"/>
</svg>
